<mxfile host="65bd71144e" modified="2021-03-06T13:54:42.750Z" agent="5.0 (Macintosh; Intel Mac OS X 10_15_7) AppleWebKit/537.36 (KHTML, like Gecko) Code/1.53.2 Chrome/87.0.4280.141 Electron/11.2.1 Safari/537.36" version="14.2.4" etag="IDq0eXxPg-3PcGqLsLtI" type="embed" pages="3">
    <diagram id="ohfUjH0zzHqU4DUSIcjA" name="ログイン前_2021年3月6日時点">
        <mxGraphModel dx="1037" dy="536" grid="1" gridSize="10" guides="1" tooltips="1" connect="1" arrows="1" fold="1" page="1" pageScale="1" pageWidth="827" pageHeight="1169" math="0" shadow="0">
            <root>
                <mxCell id="0"/>
                <mxCell id="1" parent="0"/>
                <mxCell id="8" value="" style="edgeStyle=orthogonalEdgeStyle;rounded=0;orthogonalLoop=1;jettySize=auto;html=1;" edge="1" parent="1" source="2" target="6">
                    <mxGeometry relative="1" as="geometry"/>
                </mxCell>
                <mxCell id="2" value="トップページ" style="rounded=0;whiteSpace=wrap;html=1;" vertex="1" parent="1">
                    <mxGeometry x="40" y="80" width="120" height="60" as="geometry"/>
                </mxCell>
                <mxCell id="5" value="ログイン" style="rounded=0;whiteSpace=wrap;html=1;" vertex="1" parent="1">
                    <mxGeometry x="200" y="180" width="120" height="60" as="geometry"/>
                </mxCell>
                <mxCell id="6" value="新規登録" style="rounded=0;whiteSpace=wrap;html=1;" vertex="1" parent="1">
                    <mxGeometry x="200" y="80" width="120" height="60" as="geometry"/>
                </mxCell>
                <mxCell id="20" style="edgeStyle=orthogonalEdgeStyle;rounded=0;orthogonalLoop=1;jettySize=auto;html=1;exitX=0.5;exitY=0;exitDx=0;exitDy=0;entryX=1;entryY=0.5;entryDx=0;entryDy=0;" edge="1" parent="1" source="7" target="6">
                    <mxGeometry relative="1" as="geometry"/>
                </mxCell>
                <mxCell id="7" value="パスワードリセット" style="rounded=0;whiteSpace=wrap;html=1;" vertex="1" parent="1">
                    <mxGeometry x="360" y="180" width="120" height="60" as="geometry"/>
                </mxCell>
                <mxCell id="15" value="" style="endArrow=classic;startArrow=classic;html=1;entryX=0.5;entryY=1;entryDx=0;entryDy=0;exitX=0.5;exitY=0;exitDx=0;exitDy=0;" edge="1" parent="1" source="5" target="6">
                    <mxGeometry width="50" height="50" relative="1" as="geometry">
                        <mxPoint x="90" y="300" as="sourcePoint"/>
                        <mxPoint x="140" y="250" as="targetPoint"/>
                    </mxGeometry>
                </mxCell>
                <mxCell id="16" value="" style="endArrow=classic;startArrow=classic;html=1;entryX=0;entryY=0.5;entryDx=0;entryDy=0;exitX=1;exitY=0.5;exitDx=0;exitDy=0;" edge="1" parent="1" source="5" target="7">
                    <mxGeometry width="50" height="50" relative="1" as="geometry">
                        <mxPoint x="270" y="190" as="sourcePoint"/>
                        <mxPoint x="270" y="150" as="targetPoint"/>
                    </mxGeometry>
                </mxCell>
                <mxCell id="17" value="" style="edgeStyle=orthogonalEdgeStyle;rounded=0;orthogonalLoop=1;jettySize=auto;html=1;exitX=1;exitY=0.75;exitDx=0;exitDy=0;entryX=0;entryY=0.5;entryDx=0;entryDy=0;" edge="1" parent="1" source="2" target="5">
                    <mxGeometry relative="1" as="geometry">
                        <mxPoint x="170" y="120" as="sourcePoint"/>
                        <mxPoint x="210" y="120" as="targetPoint"/>
                    </mxGeometry>
                </mxCell>
            </root>
        </mxGraphModel>
    </diagram>
    <diagram name="ログイン後_2021年3月6日時点" id="jB1v0p94pAHK1lbCI6Yj">
        <mxGraphModel dx="1037" dy="536" grid="1" gridSize="10" guides="1" tooltips="1" connect="1" arrows="1" fold="1" page="1" pageScale="1" pageWidth="827" pageHeight="1169" math="0" shadow="0">
            <root>
                <mxCell id="05cxgcNvzjBmGukLItRZ-0"/>
                <mxCell id="05cxgcNvzjBmGukLItRZ-1" parent="05cxgcNvzjBmGukLItRZ-0"/>
                <mxCell id="05cxgcNvzjBmGukLItRZ-2" value="" style="edgeStyle=orthogonalEdgeStyle;rounded=0;orthogonalLoop=1;jettySize=auto;html=1;" edge="1" parent="05cxgcNvzjBmGukLItRZ-1" source="05cxgcNvzjBmGukLItRZ-3" target="05cxgcNvzjBmGukLItRZ-5">
                    <mxGeometry relative="1" as="geometry"/>
                </mxCell>
                <mxCell id="05cxgcNvzjBmGukLItRZ-19" style="edgeStyle=orthogonalEdgeStyle;rounded=0;orthogonalLoop=1;jettySize=auto;html=1;exitX=0.5;exitY=1;exitDx=0;exitDy=0;entryX=0;entryY=0.5;entryDx=0;entryDy=0;" edge="1" parent="05cxgcNvzjBmGukLItRZ-1" source="05cxgcNvzjBmGukLItRZ-3" target="05cxgcNvzjBmGukLItRZ-4">
                    <mxGeometry relative="1" as="geometry"/>
                </mxCell>
                <mxCell id="05cxgcNvzjBmGukLItRZ-3" value="トップページ" style="rounded=0;whiteSpace=wrap;html=1;" vertex="1" parent="05cxgcNvzjBmGukLItRZ-1">
                    <mxGeometry x="40" y="80" width="120" height="60" as="geometry"/>
                </mxCell>
                <mxCell id="05cxgcNvzjBmGukLItRZ-4" value="スケジュール一覧" style="rounded=0;whiteSpace=wrap;html=1;" vertex="1" parent="05cxgcNvzjBmGukLItRZ-1">
                    <mxGeometry x="200" y="160" width="120" height="60" as="geometry"/>
                </mxCell>
                <mxCell id="05cxgcNvzjBmGukLItRZ-5" value="自ユーザ編集" style="rounded=0;whiteSpace=wrap;html=1;" vertex="1" parent="05cxgcNvzjBmGukLItRZ-1">
                    <mxGeometry x="200" y="80" width="120" height="60" as="geometry"/>
                </mxCell>
                <mxCell id="05cxgcNvzjBmGukLItRZ-11" value="シフト申請" style="rounded=0;whiteSpace=wrap;html=1;" vertex="1" parent="05cxgcNvzjBmGukLItRZ-1">
                    <mxGeometry x="200" y="240" width="120" height="60" as="geometry"/>
                </mxCell>
                <mxCell id="05cxgcNvzjBmGukLItRZ-13" value="シフト編集" style="rounded=0;whiteSpace=wrap;html=1;" vertex="1" parent="05cxgcNvzjBmGukLItRZ-1">
                    <mxGeometry x="200" y="400" width="120" height="60" as="geometry"/>
                </mxCell>
                <mxCell id="05cxgcNvzjBmGukLItRZ-14" value="シフト承認" style="rounded=0;whiteSpace=wrap;html=1;" vertex="1" parent="05cxgcNvzjBmGukLItRZ-1">
                    <mxGeometry x="200" y="320" width="120" height="60" as="geometry"/>
                </mxCell>
                <mxCell id="05cxgcNvzjBmGukLItRZ-15" value="シフト原本" style="rounded=0;whiteSpace=wrap;html=1;" vertex="1" parent="05cxgcNvzjBmGukLItRZ-1">
                    <mxGeometry x="200" y="480" width="120" height="60" as="geometry"/>
                </mxCell>
                <mxCell id="05cxgcNvzjBmGukLItRZ-16" value="管理者設定" style="rounded=0;whiteSpace=wrap;html=1;" vertex="1" parent="05cxgcNvzjBmGukLItRZ-1">
                    <mxGeometry x="200" y="560" width="120" height="60" as="geometry"/>
                </mxCell>
                <mxCell id="05cxgcNvzjBmGukLItRZ-20" style="edgeStyle=orthogonalEdgeStyle;rounded=0;orthogonalLoop=1;jettySize=auto;html=1;exitX=0.5;exitY=1;exitDx=0;exitDy=0;entryX=0;entryY=0.5;entryDx=0;entryDy=0;" edge="1" parent="05cxgcNvzjBmGukLItRZ-1" source="05cxgcNvzjBmGukLItRZ-3" target="05cxgcNvzjBmGukLItRZ-11">
                    <mxGeometry relative="1" as="geometry">
                        <mxPoint x="110" y="150" as="sourcePoint"/>
                        <mxPoint x="210" y="200" as="targetPoint"/>
                    </mxGeometry>
                </mxCell>
                <mxCell id="05cxgcNvzjBmGukLItRZ-21" style="edgeStyle=orthogonalEdgeStyle;rounded=0;orthogonalLoop=1;jettySize=auto;html=1;exitX=0.5;exitY=1;exitDx=0;exitDy=0;entryX=0;entryY=0.5;entryDx=0;entryDy=0;" edge="1" parent="05cxgcNvzjBmGukLItRZ-1" source="05cxgcNvzjBmGukLItRZ-3" target="05cxgcNvzjBmGukLItRZ-14">
                    <mxGeometry relative="1" as="geometry">
                        <mxPoint x="110" y="150" as="sourcePoint"/>
                        <mxPoint x="210" y="280" as="targetPoint"/>
                    </mxGeometry>
                </mxCell>
                <mxCell id="05cxgcNvzjBmGukLItRZ-22" style="edgeStyle=orthogonalEdgeStyle;rounded=0;orthogonalLoop=1;jettySize=auto;html=1;exitX=0.5;exitY=1;exitDx=0;exitDy=0;entryX=0;entryY=0.5;entryDx=0;entryDy=0;" edge="1" parent="05cxgcNvzjBmGukLItRZ-1" source="05cxgcNvzjBmGukLItRZ-3" target="05cxgcNvzjBmGukLItRZ-13">
                    <mxGeometry relative="1" as="geometry">
                        <mxPoint x="110" y="150" as="sourcePoint"/>
                        <mxPoint x="210" y="360" as="targetPoint"/>
                    </mxGeometry>
                </mxCell>
                <mxCell id="05cxgcNvzjBmGukLItRZ-23" style="edgeStyle=orthogonalEdgeStyle;rounded=0;orthogonalLoop=1;jettySize=auto;html=1;exitX=0.5;exitY=1;exitDx=0;exitDy=0;entryX=0;entryY=0.5;entryDx=0;entryDy=0;" edge="1" parent="05cxgcNvzjBmGukLItRZ-1" source="05cxgcNvzjBmGukLItRZ-3" target="05cxgcNvzjBmGukLItRZ-15">
                    <mxGeometry relative="1" as="geometry">
                        <mxPoint x="110" y="150" as="sourcePoint"/>
                        <mxPoint x="210" y="440" as="targetPoint"/>
                    </mxGeometry>
                </mxCell>
                <mxCell id="05cxgcNvzjBmGukLItRZ-24" style="edgeStyle=orthogonalEdgeStyle;rounded=0;orthogonalLoop=1;jettySize=auto;html=1;exitX=0.5;exitY=1;exitDx=0;exitDy=0;entryX=0;entryY=0.5;entryDx=0;entryDy=0;" edge="1" parent="05cxgcNvzjBmGukLItRZ-1" source="05cxgcNvzjBmGukLItRZ-3" target="05cxgcNvzjBmGukLItRZ-16">
                    <mxGeometry relative="1" as="geometry">
                        <mxPoint x="110" y="150" as="sourcePoint"/>
                        <mxPoint x="210" y="520" as="targetPoint"/>
                    </mxGeometry>
                </mxCell>
                <mxCell id="05cxgcNvzjBmGukLItRZ-25" value="ログアウト" style="rounded=0;whiteSpace=wrap;html=1;" vertex="1" parent="05cxgcNvzjBmGukLItRZ-1">
                    <mxGeometry x="200" y="640" width="120" height="60" as="geometry"/>
                </mxCell>
                <mxCell id="05cxgcNvzjBmGukLItRZ-26" style="edgeStyle=orthogonalEdgeStyle;rounded=0;orthogonalLoop=1;jettySize=auto;html=1;exitX=0.5;exitY=1;exitDx=0;exitDy=0;entryX=0;entryY=0.5;entryDx=0;entryDy=0;" edge="1" parent="05cxgcNvzjBmGukLItRZ-1" source="05cxgcNvzjBmGukLItRZ-3" target="05cxgcNvzjBmGukLItRZ-25">
                    <mxGeometry relative="1" as="geometry">
                        <mxPoint x="110" y="150" as="sourcePoint"/>
                        <mxPoint x="210" y="600" as="targetPoint"/>
                    </mxGeometry>
                </mxCell>
            </root>
        </mxGraphModel>
    </diagram>
    <diagram id="hRve4tDIzbp63HS6N8s9" name="ページ2">
        <mxGraphModel dx="1037" dy="536" grid="1" gridSize="10" guides="1" tooltips="1" connect="1" arrows="1" fold="1" page="1" pageScale="1" pageWidth="827" pageHeight="1169" math="0" shadow="0">
            <root>
                <mxCell id="5T--KBWVviXR5WiGFhTg-0"/>
                <mxCell id="5T--KBWVviXR5WiGFhTg-1" parent="5T--KBWVviXR5WiGFhTg-0"/>
            </root>
        </mxGraphModel>
    </diagram>
</mxfile>